<svg width="1010" height="1024" viewBox="0 0 1010 1024" fill="none" xmlns="http://www.w3.org/2000/svg">
<path d="M566.141 6.5335C553.689 4.51622 541.516 2.63049 539.104 2.32351C534.954 1.78265 534.983 1.73879 539.835 1.54876C542.641 1.43181 549.217 1.9873 554.449 2.77667C559.681 3.56604 569.678 5.37868 576.693 6.78201C583.693 8.19996 589.29 9.54481 589.115 9.76408C588.939 9.98335 578.592 8.53617 566.141 6.5335Z" fill="#7C3AED"/>
<path d="M1.14698 541.451C0.591632 526.175 0.591632 508.414 1.14698 501.982C1.70233 495.55 2.35998 490.624 2.62304 491.018C2.8861 491.413 3.3976 512.463 3.76296 537.796C4.14294 563.129 3.92372 580.554 3.2953 576.534C2.65227 572.514 1.68771 556.726 1.14698 541.451Z" fill="#7C3AED"/>
<path d="M566.141 6.5335C553.689 4.51622 541.516 2.63049 539.104 2.32351C534.954 1.78265 534.983 1.73879 539.835 1.54876C542.641 1.43181 549.217 1.9873 554.449 2.77667C559.681 3.56604 569.678 5.37868 576.693 6.78201C583.693 8.19996 589.29 9.54481 589.115 9.76408C588.939 9.98335 578.592 8.53617 566.141 6.5335Z" stroke="#7C3AED" stroke-width="1.4618"/>
<path d="M1.14698 541.451C0.591632 526.175 0.591632 508.414 1.14698 501.982C1.70233 495.55 2.35998 490.624 2.62304 491.018C2.8861 491.413 3.3976 512.463 3.76296 537.796C4.14294 563.129 3.92372 580.554 3.2953 576.534C2.65227 572.514 1.68771 556.726 1.14698 541.451Z" stroke="#7C3AED" stroke-width="1.4618"/>
<path d="M436.072 5.52484C441.289 4.70623 452.148 3.15672 460.186 2.10423C468.224 1.05173 488.45 0.101558 505.125 0.0138495C524.475 -0.0884766 535.45 0.3793 535.45 1.31485C535.45 2.11884 537.423 2.77665 539.835 2.77665C542.246 2.77665 554.244 4.39925 566.506 6.38731C578.767 8.37536 592.417 10.6704 596.831 11.4744C601.244 12.2784 614.397 16.1814 626.06 20.1575C637.722 24.1336 653.827 30.4632 676.479 41.1051L693.286 37.8307C705.708 35.4187 712.767 34.7901 720.323 35.4479C726.022 35.9303 737.349 38.62 745.898 41.529C754.331 44.3941 767.162 49.8759 774.396 53.7204C781.63 57.565 793.468 64.377 800.702 68.8793C807.936 73.3671 822.068 82.8103 832.123 89.8416C842.163 96.8728 857.625 108.07 866.467 114.721C875.309 121.358 888.462 131.854 895.696 138.037C902.93 144.221 913.672 153.971 919.561 159.716C925.451 165.461 935.243 176.731 941.308 184.771C947.387 192.811 954.475 203.672 957.062 208.891C959.663 214.109 963.331 222.997 965.231 228.625C968.11 237.162 968.68 241.884 968.724 257.13C968.753 272.348 968.169 277.478 965.144 287.828C963.156 294.669 960.818 300.911 959.956 301.715C959.093 302.519 957.223 306.13 955.79 309.755C954.373 313.38 950.208 321.596 946.554 328.028C942.886 334.459 932.188 351.241 922.776 365.303C913.365 379.381 904.625 392.858 903.354 395.27C902.082 397.682 899.291 405.24 897.128 412.081C894.98 418.922 891.852 426.801 890.201 429.623C888.549 432.444 884.837 437.268 881.944 440.352C879.065 443.437 873.409 447.661 869.39 449.737C863.661 452.719 859.408 453.655 849.661 454.108C840.103 454.561 835.382 454.049 829.2 451.915C824.787 450.38 817.538 446.77 813.124 443.875C808.711 440.981 800.161 433.613 794.126 427.489C788.104 421.378 783.092 416.554 783.019 416.788C782.931 417.007 779.803 427.562 769.281 463.244V487.729C769.281 501.193 770.041 526.029 770.962 542.912C772.657 573.566 772.672 573.625 777.144 580.188C779.613 583.814 783.209 591.035 785.152 596.268C787.739 603.27 788.85 609.819 789.361 621.119C789.741 629.553 789.332 640.254 786.818 653.278L794.681 668.993C799.007 677.632 806.183 693.917 810.625 705.172C815.068 716.428 821.352 734.189 824.582 744.641C827.812 755.093 832.123 769.886 834.155 777.532C836.186 785.177 839.825 801.286 842.236 813.346C844.662 825.406 847.629 842.83 848.827 852.083C850.04 861.337 851.21 872.636 851.443 877.227C851.823 885.003 851.517 885.895 846.738 890.836C843.932 893.745 838.159 898.876 833.921 902.238C829.683 905.615 825.927 908.027 825.576 907.632C825.225 907.237 824.246 898.686 823.398 888.629C822.551 878.586 820.812 862.798 819.54 853.545C818.283 844.292 815.243 827.204 812.818 815.538C810.377 803.873 805.583 784.475 802.149 772.415C798.729 760.355 792.474 741.279 788.251 730.023C784.042 718.767 778.43 704.953 771.006 689.093L755.865 703.711C747.535 711.75 734.645 722.597 727.221 727.83C719.797 733.064 706.644 741.089 698.021 745.694C689.384 750.284 674.77 757.023 665.519 760.662C656.268 764.302 640.82 769.506 631.175 772.255C621.529 774.988 606.725 778.599 598.292 780.28C589.86 781.961 575.055 784.358 565.41 785.63C555.764 786.902 535.377 788.32 520.105 788.802C503.035 789.328 483.89 788.963 470.416 787.852C458.359 786.872 438.966 784.431 427.303 782.458C415.641 780.484 400.851 777.517 394.421 775.894C387.991 774.257 374.516 770.252 364.461 766.977C354.421 763.703 339.281 757.973 330.848 754.23C322.416 750.488 309.263 743.749 301.619 739.262C293.976 734.774 282.314 727.07 275.679 722.159C269.044 717.232 258.039 707.614 238.777 688.362L233.458 700.422C230.535 707.058 226.53 716.75 224.557 721.983C222.584 727.216 218.376 739.379 215.204 749.026C212.047 758.674 206.538 778.409 202.972 792.88C199.406 807.352 195.153 826.75 193.546 836.004C191.923 845.257 189.614 862.521 188.387 874.376C187.159 886.231 186.165 898.569 186.165 901.785C186.165 905.001 185.508 907.632 184.704 907.632C183.9 907.632 177.66 902.033 170.82 895.207C161.862 886.246 158.398 881.758 158.398 879.127C158.398 877.124 159.392 867.739 160.605 858.296C161.803 848.853 164.478 832.232 166.524 821.386C168.584 810.539 172.545 792.442 175.336 781.186C178.127 769.93 183.096 752.169 186.37 741.717C189.644 731.266 194.919 715.8 198.091 707.365C201.262 698.931 208.102 683.304 222.701 653.278L221.021 644.142C220.042 638.836 219.676 628.866 220.144 620.388C220.685 610.579 222.058 602.642 224.309 596.268C226.165 591.035 229.848 583.638 232.493 579.823C237.287 572.909 237.33 572.748 238.777 548.029C239.581 534.361 240.239 509.042 240.239 491.749C240.239 462.484 239.99 459.546 236.673 448.992C234.7 442.764 231.748 432.897 227.086 416.467L214.298 429.301C204.448 439.198 198.851 443.481 189.936 447.939C179.633 453.099 176.987 453.801 165.822 454.254C155.884 454.649 151.617 454.137 145.245 451.769C140.831 450.117 133.992 445.951 130.061 442.487C125.998 438.905 121.204 432.736 118.939 428.161C116.747 423.746 113.108 414.537 110.843 407.696C107.467 397.551 102.951 389.642 86.2318 364.573C74.9641 347.689 62.2788 326.96 58.026 318.526C53.7732 310.091 49.725 302.519 49.0235 301.715C48.322 300.911 46.4075 295.649 44.7561 290.021C43.1193 284.393 40.9563 276.163 39.9625 271.748C38.8226 266.72 38.5011 259.601 39.0857 252.745C39.5972 246.722 41.3509 237.177 42.9585 231.549C44.5661 225.921 48.512 216.054 51.7125 209.622C54.9131 203.19 61.3142 192.884 65.947 186.715C70.5798 180.561 77.4047 172.331 81.1314 168.443C84.8435 164.569 92.0776 157.435 97.2073 152.611C102.337 147.787 110.477 140.551 115.285 136.517C120.108 132.482 127.328 126.562 131.317 123.361C135.322 120.159 140.583 116.066 143.009 114.283C145.45 112.499 149.732 109.371 152.552 107.339C155.373 105.307 159.742 102.165 162.271 100.352C164.799 98.5393 176.301 90.7479 187.846 83.0296C199.377 75.3259 213.743 66.0581 219.779 62.4474C225.8 58.8514 236.322 53.2381 243.162 49.9782C250.001 46.7184 258.214 43.2247 261.43 42.2307C264.645 41.222 268.751 39.8333 270.564 39.1317C272.376 38.43 279.274 37.1144 285.909 36.2081C296.168 34.7901 300.26 34.9363 313.311 37.1875C321.743 38.6493 329.971 39.8041 331.579 39.7749C333.186 39.731 340.421 36.9243 347.655 33.5183C354.889 30.1123 364.096 26.0193 368.115 24.4113C372.134 22.7887 379.368 20.1867 384.191 18.6226C389.014 17.0438 400.53 13.7986 409.766 11.4013C419.002 9.00393 430.855 6.35807 436.072 5.52484Z" fill="#7C3AED"/>
<path d="M459.455 839.673C465.476 838.358 476.656 836.72 484.3 836.033C491.943 835.332 505.417 835.098 514.259 835.507C523.101 835.902 536.093 837.174 543.123 838.314C550.152 839.454 561.99 842.451 569.429 844.965C576.867 847.479 588.866 852.493 596.1 856.089C603.334 859.7 615.113 867.009 622.274 872.344C629.45 877.68 639.227 886.319 644.006 891.553C648.785 896.786 655.391 905.001 658.664 909.825C661.938 914.649 667.404 924.516 670.809 931.752C674.214 938.988 678.423 950.507 680.148 957.334C681.887 964.16 683.684 974.027 684.167 979.261C684.97 988.148 684.795 988.923 681.492 991.204C679.534 992.534 673.016 995.282 666.98 997.285C660.959 999.287 649.779 1002.69 642.135 1004.86C634.492 1007.01 623.984 1009.7 618.752 1010.84C613.52 1011.96 604.649 1013.82 599.023 1014.96C593.396 1016.08 583.532 1017.72 577.101 1018.58C570.671 1019.43 559.491 1020.79 552.257 1021.58C545.023 1022.37 531.212 1023.36 521.566 1023.8C511.921 1024.23 494.164 1023.95 482.107 1023.19C470.051 1022.44 454.267 1021.11 447.033 1020.25C439.799 1019.39 427.639 1017.68 419.996 1016.45C412.353 1015.22 397.899 1012.21 387.844 1009.77C377.804 1007.33 363.336 1003.38 355.693 1001.01C348.049 998.644 338.331 994.917 334.078 992.724C326.931 989.069 326.332 988.368 326.376 983.646C326.405 980.839 327.487 972.931 328.787 966.104C330.074 959.278 332.792 949.074 334.809 943.447C336.84 937.819 340.844 928.945 343.709 923.712C346.588 918.479 352.331 909.606 356.467 903.978C360.618 898.35 368.875 889.141 374.823 883.498C380.786 877.87 390.256 870.21 395.882 866.497C401.509 862.77 410.716 857.449 416.343 854.671C421.969 851.879 431.498 847.903 437.533 845.842C443.555 843.766 453.419 840.989 459.455 839.673Z" fill="#BA91FF"/>
<path d="M50.2806 309.389C50.2952 306.773 49.4622 303.805 48.4538 302.782C46.9485 301.291 46.9631 300.94 48.5122 300.955C49.5645 300.969 53.6565 308.059 57.6024 316.698C62.089 326.521 72.626 344.18 85.7498 363.841C102.907 389.584 107.452 397.521 110.828 407.695C113.108 414.522 116.747 423.746 118.939 428.161C121.204 432.736 125.998 438.905 130.061 442.486C133.992 445.951 140.832 450.117 145.245 451.769C151.617 454.137 155.884 454.648 165.822 454.254C176.988 453.801 179.633 453.099 189.936 447.939C198.851 443.48 204.448 439.197 227.086 416.466L230.097 427.064C231.748 432.897 234.7 442.764 236.673 448.991C239.99 459.545 240.239 462.484 240.239 491.749C240.239 509.042 239.581 534.36 238.777 548.028C237.331 572.747 237.287 572.908 232.493 579.822C229.848 583.638 226.165 591.034 224.309 596.268C222.059 602.641 220.685 610.579 220.144 620.387C219.676 628.866 220.042 638.835 222.702 653.278L213.275 672.647C208.102 683.303 201.262 698.93 198.091 707.365C194.92 715.799 189.644 731.265 186.37 741.717C183.097 752.169 178.128 769.93 175.336 781.186C172.545 792.442 168.584 810.539 166.524 821.385C164.478 832.232 161.803 848.852 160.605 858.296C159.392 867.739 158.384 877.284 158.369 879.492C158.354 882.605 160.59 885.558 168.234 892.59C173.67 897.589 177.47 901.711 176.666 901.77C175.862 901.828 167.05 894.124 157.068 884.652C147.101 875.18 132.721 860.196 125.106 851.352C117.507 842.508 105.888 828.036 99.2974 819.193C92.6917 810.349 84.0545 798.026 80.1086 791.813C76.1481 785.6 70.127 775.733 66.7364 769.886C63.3459 764.039 56.6671 751.365 51.9028 741.717C47.1239 732.069 41.2342 719.571 38.7936 713.943C36.3676 708.315 31.7787 696.474 28.6074 687.63C25.436 678.786 21.154 665.309 19.0641 657.663C16.9889 650.018 13.9491 637.534 12.3269 629.889C10.6901 622.244 8.36638 610.082 7.168 602.846C5.70656 594.148 4.52279 571.095 3.67515 534.872C2.97366 504.715 2.9152 476.429 3.55823 472.015C4.20127 467.6 5.83809 456.403 7.19723 447.164C8.55637 437.911 11.9177 421.144 14.6652 409.888C17.4127 398.632 21.0079 385.476 22.6593 380.652C24.2961 375.828 27.2921 367.276 29.3089 361.649C31.3257 356.021 35.0523 346.475 37.566 340.452C40.0943 334.415 43.9818 326.039 46.2031 321.814C48.4392 317.59 50.266 312.006 50.2806 309.389Z" fill="#EFE5FF"/>
<path d="M946.832 327.296C951.099 319.651 955.425 310.939 956.434 307.927C957.442 304.916 958.465 302.446 958.684 302.446C958.918 302.446 958.743 304.916 958.29 307.927C957.632 312.386 958.597 315.646 963.493 325.469C966.795 332.106 972.363 344.604 975.856 353.243C979.349 361.882 984.245 375.199 986.729 382.845C989.199 390.49 992.97 403.968 995.104 412.812C997.237 421.656 1000.23 435.806 1001.78 444.24C1003.32 452.675 1005.25 467.805 1006.06 477.862C1006.88 487.904 1008.12 501.061 1008.84 507.098C1009.54 513.12 1009.91 523.66 1009.64 530.487C1009.38 537.313 1008.45 552.121 1007.54 563.377C1006.65 574.633 1005.36 588.111 1004.69 593.344C1004 598.577 1002.69 607.114 1001.75 612.348C1000.8 617.581 998.45 628.764 996.521 637.198C994.577 645.633 990.997 659.286 988.556 667.531C986.116 675.775 980.767 690.905 976.689 701.152C972.597 711.399 965.319 728.005 960.511 738.062C955.703 748.105 947.124 764.229 941.425 773.877C935.74 783.525 927.409 796.681 922.938 803.113C918.451 809.545 911.275 819.412 906.978 825.04C902.682 830.668 896.076 838.883 892.32 843.298C888.55 847.712 881.242 855.942 876.069 861.57C870.896 867.213 865.298 873.075 863.647 874.609C861.981 876.144 858.649 879.243 851.853 885.573L851.444 877.241C851.21 872.651 850.041 861.336 848.828 852.083C847.629 842.83 844.663 825.405 842.237 813.345C839.825 801.285 836.186 785.176 834.155 777.531C832.123 769.886 827.812 755.092 824.582 744.641C821.352 734.189 815.068 716.428 810.626 705.172C806.183 693.916 799.007 677.632 786.819 653.278L788.441 644.873C789.332 640.253 789.742 629.553 789.362 621.118C788.85 609.819 787.739 603.27 785.153 596.268C783.209 591.034 779.614 583.813 777.144 580.188C772.672 573.624 772.657 573.566 770.962 542.912C770.041 526.028 769.281 501.192 769.281 463.244L776.077 440.22C779.804 427.561 782.931 417.007 783.019 416.788C783.092 416.554 788.105 421.378 794.126 427.488C800.162 433.613 808.711 440.981 813.125 443.875C817.553 446.769 824.787 450.38 829.201 451.915C835.382 454.049 840.103 454.561 849.661 454.107C859.409 453.654 863.661 452.719 869.39 449.737C873.409 447.661 879.065 443.436 881.944 440.352C884.838 437.268 888.55 432.429 890.201 429.622C891.853 426.801 894.98 418.907 897.128 412.081C899.291 405.239 902.083 397.682 903.354 395.27C904.626 392.858 913.175 379.702 922.353 366.034C931.545 352.366 942.55 334.941 946.832 327.296Z" fill="#EFE5FF"/>
<path d="M224.558 721.983C226.531 716.749 230.593 707.087 233.56 700.509L238.982 688.537L251.302 700.874C258.083 707.657 269.044 717.232 275.679 722.158C282.314 727.07 293.976 734.773 301.62 739.261C309.263 743.749 322.416 750.488 330.848 754.23C339.281 757.972 354.421 763.702 364.462 766.977C374.516 770.251 387.991 774.257 394.421 775.894C400.852 777.517 415.641 780.484 427.304 782.457C438.966 784.431 458.359 786.872 470.416 787.851C483.891 788.962 503.036 789.328 520.105 788.802C535.377 788.319 555.765 786.901 565.41 785.63C575.056 784.358 589.86 781.96 598.292 780.279C606.725 778.598 621.529 774.988 631.175 772.254C640.82 769.506 656.268 764.302 665.519 760.662C674.77 757.022 689.384 750.283 698.021 745.693C706.644 741.088 719.797 733.063 727.221 727.83C734.645 722.597 747.535 711.75 771.006 689.092L775.799 699.325C778.43 704.953 784.042 718.767 788.251 730.023C792.474 741.278 798.729 760.355 802.149 772.415C805.584 784.475 810.377 803.873 812.818 815.538C815.244 827.189 818.284 844.292 819.54 853.545C820.812 862.798 822.551 878.571 823.413 888.628C824.275 898.671 825.269 907.398 825.62 907.997C825.985 908.596 822.2 912.222 817.217 916.037C812.219 919.852 806.709 923.96 804.97 925.173C803.216 926.386 793.322 933.038 782.975 939.967C772.628 946.896 759.563 955.155 753.936 958.298C748.31 961.455 735.493 968.062 725.438 972.974C715.398 977.886 702.903 983.543 697.671 985.546C692.439 987.548 687.192 989.595 685.979 990.077C684.167 990.808 683.758 989.156 683.612 980.356C683.509 974.524 681.989 964.159 680.221 957.333C678.453 950.506 674.214 938.987 670.809 931.751C667.404 924.515 661.938 914.648 658.665 909.824C655.391 905 648.785 896.785 644.006 891.552C639.228 886.318 629.45 877.679 622.275 872.344C615.114 867.008 603.334 859.699 596.1 856.088C588.866 852.492 576.868 847.478 569.429 844.964C561.99 842.45 549.831 839.453 542.392 838.313C534.954 837.173 523.949 835.813 517.913 835.302C511.892 834.805 498.564 835.082 488.319 835.93C478.074 836.778 464.921 838.503 459.09 839.775C453.259 841.046 443.57 843.78 437.534 845.841C431.513 847.917 421.969 851.878 416.343 854.67C410.716 857.448 401.509 862.769 395.883 866.496C390.256 870.209 380.786 877.869 374.823 883.497C368.875 889.14 360.618 898.349 356.467 903.977C352.332 909.605 346.588 918.478 343.709 923.711C340.845 928.945 336.84 937.818 334.809 943.446C332.792 949.074 330.074 959.277 328.788 966.104C327.487 972.93 326.435 980.999 326.449 984.011C326.464 988.791 327.019 989.682 330.848 990.954C333.26 991.758 334.911 992.738 334.502 993.147C334.107 993.542 326.376 990.969 317.33 987.431C308.284 983.879 296.125 978.617 290.293 975.737C284.462 972.842 279.376 970.489 278.967 970.489C278.573 970.489 271.499 966.791 263.257 962.274C255.014 957.771 239.07 947.992 227.817 940.566C216.564 933.14 202.431 923.127 196.396 918.317C186.297 910.248 185.464 909.181 185.771 904.576C185.961 901.843 187.159 888.745 188.431 875.472C189.717 862.199 192.333 842.801 194.247 832.349C196.162 821.897 200.385 802.82 203.615 789.956C206.845 777.093 212.062 758.674 215.219 749.026C218.376 739.378 222.585 727.216 224.558 721.983Z" fill="#EFE5FF"/>
<path d="M455.802 293.456C462.232 291.761 473.412 289.495 480.646 288.428C488.436 287.273 501.238 286.703 512.067 287.039C522.108 287.361 535.597 288.691 542.027 290.021C548.457 291.337 559.637 294.392 566.872 296.804C574.106 299.201 585.841 304.259 592.958 308.016C600.076 311.787 611.256 318.892 617.803 323.818C624.35 328.744 635.311 338.611 642.136 345.774C648.961 352.922 657.832 363.711 661.822 369.719C665.826 375.727 671.876 386.237 675.267 393.078C678.657 399.905 683.407 411.424 685.833 418.66C688.244 425.896 691.24 438.058 692.483 445.703C693.725 453.334 694.748 465.832 694.762 473.477C694.762 481.108 693.783 493.124 692.57 500.155C691.357 507.186 688.931 517.39 687.178 522.813C685.424 528.236 680.879 537.607 677.064 543.644C673.133 549.871 664.569 560.001 657.233 567.091C650.13 573.962 640.382 582.265 635.559 585.539C630.737 588.813 620.872 594.456 613.638 598.081C606.404 601.707 595.56 606.443 589.524 608.621C583.503 610.784 571.987 614.117 563.949 616.003C555.911 617.903 542.422 620.242 533.989 621.207C524.592 622.289 509.861 622.654 495.992 622.143C483.54 621.689 467.757 620.286 460.917 619.029C454.077 617.757 442.254 615.009 434.611 612.919C426.968 610.828 414.808 606.545 407.574 603.402C400.34 600.259 390.139 595.143 384.922 592.015C379.705 588.901 371.477 583.405 366.654 579.809C361.831 576.198 353.282 568.319 347.655 562.296C342.029 556.274 334.736 546.816 331.462 541.29C328.101 535.618 323.644 524.83 321.232 516.6C317.199 502.772 316.965 500.521 316.965 474.939C316.965 457.383 317.652 445.074 318.909 439.856C319.99 435.427 322.504 426.553 324.506 420.122C326.508 413.69 330.936 402.507 334.341 395.271C337.747 388.035 344.075 376.852 348.4 370.42C352.741 363.988 361.904 352.893 368.773 345.76C375.642 338.641 386.851 328.598 393.691 323.453C400.53 318.322 411.038 311.539 417.074 308.411C423.095 305.268 431.659 301.306 436.072 299.611C440.486 297.929 449.372 295.152 455.802 293.456Z" fill="#EBEEFD" fill-opacity="0.98"/>
<path d="M254.123 78.6296C263.769 73.8787 275.943 69.0694 281.16 67.9292C286.377 66.789 292.793 65.8096 295.409 65.7511C298.025 65.6926 300.159 65.9704 300.159 66.3651C300.159 66.7744 296.476 71.2036 291.96 76.2322C287.459 81.2608 281.291 88.9938 278.237 93.4084C275.197 97.8377 269.746 107.369 266.136 114.605C262.527 121.84 257.908 132.702 255.877 138.724C253.846 144.762 251.186 153.313 249.958 157.728C248.745 162.142 246.1 173.661 244.083 183.309C242.081 192.957 238.749 212.691 236.703 227.163C234.657 241.635 230.989 271.573 228.548 293.675C226.107 315.792 223.068 339.137 221.796 345.569C220.51 352.001 217.821 362.526 215.819 368.958C213.817 375.39 209.798 385.257 206.889 390.885C203.777 396.922 198.004 404.743 192.786 409.962C187.934 414.815 181.343 420.019 178.128 421.51C174.913 423.016 169.652 424.55 166.437 424.93C163.221 425.311 158.296 424.901 155.476 424.024C152.655 423.147 149.221 421.247 147.832 419.814C146.444 418.367 142.966 410.956 140.101 403.31C137.222 395.665 132.224 384.497 128.98 378.46C125.735 372.437 118.034 360.1 111.881 351.051C105.714 342.002 97.4858 329.504 93.5983 323.277C89.7109 317.049 84.3474 307.343 81.6876 301.715C79.0424 296.087 75.8126 288.354 74.5265 284.539C73.2258 280.724 71.5159 273.312 70.7121 268.094C69.6307 261.033 69.7622 255.683 71.2236 247.263C72.3636 240.656 75.3888 231.359 78.4724 224.971C81.3807 218.948 86.9926 209.724 90.9385 204.505C94.899 199.287 105.948 187.432 115.505 178.193C125.063 168.954 140.101 155.783 148.929 148.928C157.756 142.086 171.552 131.81 179.59 126.124C187.628 120.423 203.733 109.342 215.395 101.507C227.057 93.6862 244.478 83.3804 254.123 78.6296Z" fill="#BA91FF"/>
<path d="M713.849 73.6741C710.547 70.4581 707.872 67.3299 707.872 66.7305C707.887 66.1312 710.035 65.6488 712.651 65.6634C715.267 65.678 722.004 66.6721 727.631 67.8853C733.257 69.084 744.773 73.3963 753.206 77.4601C761.639 81.524 774.792 88.7891 782.435 93.6131C790.078 98.4224 803.231 107.222 811.664 113.157C820.096 119.107 832.928 128.038 840.162 133.023C847.396 138.008 860.228 147.729 868.66 154.629C877.093 161.514 890.304 173.427 898.006 181.073C905.708 188.733 915.149 199.287 918.992 204.505C922.836 209.724 927.878 217.793 930.201 222.412C932.525 227.032 935.419 234.604 936.632 239.223C937.83 243.842 938.824 252.569 938.824 258.592C938.824 265.053 937.611 273.912 935.886 280.154C934.279 285.986 931.283 294.538 929.237 299.157C927.176 303.776 922.427 312.825 918.656 319.257C914.9 325.689 906.205 339.181 899.321 349.224C892.452 359.281 884.926 370.785 882.617 374.805C880.308 378.825 875.821 389.029 872.664 397.463C869.508 405.898 866 414.625 864.86 416.832C863.735 419.039 860.505 421.846 857.699 423.045C854.893 424.243 849.793 425.237 846.373 425.223C842.895 425.208 836.947 423.688 832.855 421.744C828.836 419.843 822.668 415.736 819.146 412.622C815.624 409.508 809.895 402.36 806.417 396.732C802.939 391.104 798.35 381.573 796.231 375.536C794.112 369.514 791.16 358.989 789.669 352.147C788.178 345.306 784.934 321.64 782.45 299.522C779.98 277.42 776.969 251.429 775.771 241.781C774.558 232.133 771.927 214.709 769.91 203.044C767.894 191.378 764.912 176.585 763.305 170.153C761.682 163.721 758.087 151.72 755.311 143.475C752.548 135.231 747.404 122.732 743.897 115.701C740.375 108.67 733.535 97.6476 728.668 91.2157C723.816 84.7838 717.152 76.89 713.849 73.6741Z" fill="#BA91FF"/>
<path d="M733.155 643.221C738.606 637.9 746.41 628.808 750.502 623.019C754.609 617.23 758.599 612.83 759.388 613.24C760.163 613.649 760.747 619.701 760.674 626.688C760.601 633.72 759.476 642.987 758.175 647.431C756.874 651.846 753.966 659.096 751.715 663.511C749.479 667.926 744.072 675.498 739.702 680.322C735.347 685.146 727.558 692.484 722.399 696.621C717.24 700.758 705.782 708.505 696.94 713.826C688.099 719.133 672.973 726.836 663.327 730.915C653.682 734.993 635.925 741.162 623.868 744.597C611.811 748.047 591.746 752.579 579.294 754.684C566.828 756.789 545.798 759.23 532.528 760.092C519.258 760.969 501.18 761.262 492.338 760.75C483.497 760.239 469.35 759.171 460.917 758.397C452.47 757.607 438.338 755.634 429.496 753.997C420.655 752.359 408.159 749.714 401.729 748.091C395.299 746.468 384.776 743.472 378.346 741.411C371.916 739.364 360.239 735.125 352.405 732.026C344.572 728.912 333.392 723.971 327.561 721.048C321.73 718.124 312.683 713.052 307.466 709.777C302.234 706.517 293.684 700.451 288.467 696.314C283.235 692.162 276.176 686.052 272.757 682.719C269.337 679.386 264.251 673.218 261.445 668.993C258.639 664.768 254.927 657.693 253.203 653.279C251.025 647.709 249.783 640.415 249.169 629.524C248.482 617.435 248.701 613.795 250.104 613.81C251.113 613.81 254.021 616.938 256.593 620.753C259.151 624.569 267.861 634.319 275.957 642.403C284.93 651.378 296.359 660.895 305.274 666.8C313.312 672.136 326.465 679.752 334.503 683.713C342.541 687.689 355.694 693.39 363.731 696.372C371.769 699.355 384.265 703.389 391.499 705.348C398.733 707.292 413.201 710.464 423.651 712.394C434.1 714.323 451.52 716.692 462.379 717.686C475.137 718.84 494.764 719.177 517.914 718.636C539.499 718.139 559.813 716.867 569.064 715.434C577.497 714.119 591.965 711.4 601.216 709.383C610.467 707.365 625.914 703.038 635.56 699.778C645.205 696.519 659.674 690.774 667.712 687.002C675.75 683.216 686.93 677.457 692.556 674.197C698.183 670.922 707.39 664.798 713.016 660.573C718.643 656.348 727.704 648.542 733.155 643.221Z" fill="#BA91FF"/>
<path d="M447.764 35.024C457.804 33.4306 468.984 31.8373 472.608 31.5011C476.233 31.1502 492.996 31.0771 509.875 31.3403C528.684 31.6326 546.514 32.7436 555.911 34.2054C564.343 35.521 577.832 38.1669 585.87 40.0965C593.908 42.0114 605.41 45.1689 611.445 47.1131C617.467 49.0573 628.325 53.0919 635.559 56.074C642.793 59.056 652.337 63.5291 656.75 66.0288C661.164 68.5139 667.097 72.2122 669.903 74.2441C672.709 76.2761 679.256 81.5824 684.43 86.0409C689.603 90.4994 697.758 99.0655 702.552 105.103C707.345 111.125 714.156 121.987 717.678 129.223C721.214 136.458 726.359 149.615 729.121 158.459C731.883 167.302 735.77 182.754 737.773 192.811C739.775 202.853 742.742 221.287 744.378 233.741C746.001 246.196 749.318 275.14 751.744 298.061C754.155 320.982 757.166 344.984 758.437 351.416C760.001 359.354 760.44 366.4 759.797 373.343C759.27 378.971 757.926 389.16 756.801 396.001C755.661 402.843 753.059 414.347 750.999 421.583C748.938 428.819 745.547 439.344 743.458 444.972C741.382 450.6 736.077 462.44 731.678 471.284C727.294 480.128 720.031 492.948 715.573 499.789C711.101 506.616 702.537 517.141 696.545 523.178C690.539 529.201 685.351 533.484 685.014 532.68C684.664 531.876 685.731 527.11 687.367 522.082C689.019 517.053 691.357 507.186 692.57 500.155C693.783 493.123 694.762 481.122 694.762 473.477C694.748 465.832 693.725 453.348 692.483 445.703C691.24 438.057 688.244 425.895 685.833 418.659C683.407 411.423 678.657 399.919 675.267 393.078C671.876 386.236 665.826 375.726 661.821 369.718C657.832 363.71 648.961 352.922 642.136 345.774C635.311 338.611 624.35 328.744 617.803 323.818C611.255 318.891 600.075 311.787 592.958 308.015C585.841 304.259 574.106 299.201 566.871 296.803C559.637 294.391 548.618 291.395 542.392 290.123C536.167 288.866 524.65 287.404 516.817 286.907C508.589 286.366 496.094 286.717 487.223 287.726C478.79 288.69 465.637 291.073 457.994 293.003C450.351 294.947 440.486 297.914 436.072 299.61C431.659 301.306 423.095 305.267 417.074 308.41C411.038 311.538 400.53 318.321 393.69 323.452C386.851 328.598 375.642 338.64 368.773 345.759C361.904 352.893 352.741 363.988 348.4 370.42C344.074 376.852 337.746 388.035 334.341 395.27C330.936 402.506 326.508 413.689 324.506 420.121C322.504 426.553 319.99 435.441 318.908 439.855C317.652 445.074 316.965 457.382 316.965 474.939C316.965 500.842 317.155 502.581 321.349 516.22C323.76 524.055 325.251 530.955 324.666 531.569C324.067 532.183 319.142 528.061 313.706 522.418C308.269 516.775 300.436 507.23 296.314 501.222C292.179 495.214 285.485 484.046 281.437 476.4C277.374 468.755 271.441 455.935 268.255 447.895C265.069 439.855 260.67 426.699 258.478 418.659C256.286 410.619 253.597 398.457 252.486 391.616C251.39 384.775 250.498 374.25 250.513 368.227C250.527 362.19 251.171 354.632 251.93 351.416C252.69 348.2 255 330.118 257.046 311.217C259.092 292.316 261.766 267.991 262.994 257.13C264.221 246.269 266.881 226.871 268.927 214.007C270.958 201.143 274.203 184.04 276.132 176C278.046 167.96 281.51 155.798 283.834 148.957C286.143 142.116 290.191 132.248 292.822 127.03C295.452 121.811 299.764 114.239 302.409 110.219C305.054 106.199 311.543 98.4662 316.833 93.0429C322.138 87.6196 330.571 80.1498 335.598 76.4369C340.625 72.7239 350.315 66.9059 357.154 63.4853C363.994 60.0647 375.495 54.9337 382.73 52.0686C389.964 49.2181 403.453 44.8766 412.689 42.4061C421.926 39.9503 437.709 36.6174 447.764 35.024Z" fill="#EFE5FF"/>
<path d="M713.746 548.803C718.978 543.044 726.724 533.542 730.977 527.68L738.723 517.024L739.965 529.245C740.666 535.954 741.28 551.654 741.353 564.109C741.47 585.085 741.222 587.307 738.006 594.075C736.107 598.095 730.962 605.653 726.607 610.886C722.237 616.119 712.139 625.387 704.159 631.498C696.165 637.593 684.371 645.619 677.941 649.317C671.511 653.015 660.652 658.658 653.827 661.845C647.002 665.031 633.513 670.279 623.868 673.524C614.222 676.755 598.775 681.067 589.524 683.114C580.273 685.16 563.51 687.923 552.257 689.224C536.4 691.081 523.744 691.446 495.991 690.861C469.174 690.291 455.787 689.341 442.649 687.061C433.003 685.394 418.535 682.427 410.497 680.468C402.459 678.495 388.97 674.533 380.537 671.639C372.105 668.759 357.301 662.502 347.655 657.752C338.009 652.986 325.193 645.809 319.157 641.789C313.136 637.754 303.592 630.62 297.966 625.914C292.339 621.221 284.287 612.787 280.078 607.188C275.854 601.589 271.412 594.046 270.184 590.421C268.927 586.679 267.977 578.8 267.992 572.148C268.006 565.716 268.503 551.084 269.102 539.623C269.702 528.163 270.535 518.749 270.929 518.72C271.324 518.69 274.597 522.476 278.193 527.125C281.788 531.788 290.001 541.494 296.461 548.687C302.92 555.893 315.43 567.968 324.272 575.54C333.114 583.097 347.918 594.28 357.154 600.39C366.391 606.486 382.51 615.549 392.96 620.534C403.409 625.504 418.199 631.688 425.842 634.275C433.486 636.848 446.639 640.517 455.071 642.432C463.504 644.347 478.308 646.686 487.954 647.636C501.516 648.981 509.627 648.981 523.759 647.621C533.814 646.656 547.946 644.566 555.18 642.958C562.414 641.365 575.889 637.52 585.139 634.436C594.39 631.351 609.18 625.212 618.022 620.812C626.864 616.412 638.701 609.951 644.328 606.457C649.954 602.963 660.477 595.713 667.711 590.333C674.945 584.954 686.125 575.774 692.556 569.912C698.986 564.065 708.515 554.563 713.746 548.803Z" fill="#EFE5FF"/>
<path d="M356.789 228.844C361.013 226.71 366.932 224.342 369.942 223.567C372.953 222.792 380.026 222.456 385.653 222.822C393.048 223.289 398.411 224.693 405.017 227.88C410.059 230.306 417.147 235.393 420.859 239.223C424.542 243.038 429.496 250.114 431.849 254.937C434.304 259.966 436.117 266.047 436.102 269.19C436.087 272.201 435.181 276.484 434.085 278.692C432.989 280.899 430.183 283.589 427.874 284.656C425.55 285.723 421.677 286.235 419.266 285.796C416.855 285.358 413.888 283.91 412.69 282.609C411.491 281.294 408.203 275.52 405.382 269.775C401.334 261.501 399.054 258.636 394.422 256.063C390.973 254.133 386.033 252.789 382.365 252.774C378.945 252.759 373.523 254.06 370.308 255.668C367.093 257.276 363.117 260.405 361.481 262.612C359.829 264.819 356.716 271.163 354.539 276.704C352.303 282.39 348.985 287.989 346.925 289.553C344.923 291.073 341.137 292.286 338.521 292.257C335.905 292.243 332.456 291.556 330.849 290.752C329.241 289.948 326.859 287.156 325.544 284.539C323.863 281.162 323.439 277.873 324.097 273.21C324.594 269.585 327.122 262.349 329.723 257.13C332.31 251.897 337.732 244.281 341.78 240.173C345.814 236.08 352.566 230.979 356.789 228.844Z" fill="#7C3AED"/>
<path d="M599.754 230.993C603.379 228.903 609.619 226.023 613.638 224.576C618.797 222.734 623.737 222.135 630.445 222.559C635.677 222.895 643.89 224.664 648.713 226.491C655.245 228.976 659.966 232.28 667.215 239.457C673.557 245.743 678.365 252.145 681.011 257.861C683.261 262.685 685.41 270.257 685.789 274.672C686.447 282.112 686.169 283.063 681.961 287.463C678.38 291.219 676.275 292.213 671.847 292.184C668.764 292.17 664.789 291.015 662.991 289.626C661.193 288.237 658.037 282.814 655.976 277.595C653.915 272.362 650.627 265.959 648.654 263.343C646.681 260.726 642.428 257.276 639.213 255.668C635.998 254.06 630.898 252.759 627.887 252.759C624.877 252.774 619.615 254.09 616.196 255.683C610.832 258.197 609.298 260.039 604.972 269.19C602.21 275.023 598.761 280.855 597.299 282.171C595.838 283.486 593.163 284.963 591.351 285.46C589.539 285.957 585.929 285.723 583.313 284.934C580.376 284.042 577.511 281.659 575.787 278.721C573.697 275.096 573.244 272.435 573.96 267.728C574.486 264.308 576.503 258.387 578.432 254.572C580.376 250.757 584.482 244.734 587.566 241.211C590.65 237.688 596.13 233.084 599.754 230.993Z" fill="#7C3AED"/>
<path d="M460.187 330.746C465.813 328.174 475.02 325.089 480.647 323.876C486.273 322.677 496.635 321.639 503.664 321.566C510.694 321.508 521.216 322.385 527.048 323.511C532.879 324.651 541.267 326.931 545.681 328.568C550.094 330.22 557.504 334.226 562.122 337.471C566.74 340.716 572.498 346.329 574.91 349.955C577.321 353.565 580.346 360.64 581.632 365.669C583.123 371.502 583.62 377.188 583.021 381.383C582.509 384.994 580.2 391.908 577.906 396.732C575.202 402.433 570.745 408.28 565.191 413.426C560.485 417.782 552.374 424.126 547.142 427.518C541.91 430.909 533.858 435.558 520.793 442.048L520.836 480.786L527.778 485.464C531.593 488.051 538.008 491.457 542.027 493.05C547.289 495.126 552.798 495.93 561.757 495.93C570.876 495.915 576.313 495.097 582.217 492.831C586.631 491.135 593.543 486.852 597.562 483.315C602.312 479.149 606.082 474.12 608.318 468.974C610.204 464.618 613.17 459.56 614.895 457.719C617.204 455.263 619.63 454.415 624.233 454.43C628.559 454.459 631.585 455.482 634.186 457.762C636.787 460.057 638.176 463.054 638.716 467.63C639.389 473.155 638.702 475.845 634.391 484.44C631.029 491.165 626.338 497.45 620.726 502.757C615.889 507.318 607.412 513.209 601.216 516.293C595.18 519.304 585.651 522.725 580.025 523.909C574.398 525.078 565.191 526.072 559.565 526.087C553.909 526.116 544.117 524.801 537.643 523.149C531.213 521.497 521.187 517.55 504.761 508.56L494.165 514.363C488.334 517.55 478.308 521.497 471.878 523.149C465.404 524.801 455.612 526.116 449.956 526.087C444.33 526.072 435.123 525.064 429.496 523.865C423.87 522.652 414.356 519.217 408.364 516.205C401.422 512.741 394.232 507.551 388.605 501.982C383.578 496.983 377.893 489.44 375.408 484.44C372.368 478.345 371.038 473.521 371.038 468.594C371.038 462.718 371.711 460.935 375.057 457.996C377.776 455.628 380.859 454.473 384.557 454.459C387.567 454.459 391.513 455.438 393.326 456.652C395.138 457.865 398.587 462.806 400.998 467.63C403.409 472.454 407.677 478.695 410.497 481.517C413.318 484.323 418.74 488.212 422.554 490.156C426.369 492.1 434.1 494.468 439.726 495.433C447.72 496.822 451.871 496.807 458.725 495.418C463.548 494.439 470.124 492.305 473.34 490.668C476.555 489.045 481.655 485.814 490.146 479.324V442.779L485.776 440.221C483.365 438.818 475.97 434.695 469.335 431.085C461.443 426.787 453.376 420.706 446.04 413.543C439.054 406.716 433.544 399.817 431.455 395.27C428.824 389.584 428.079 385.359 428.049 376.267C428.035 366.78 428.707 363.199 431.63 357.264C433.603 353.244 438.528 346.68 442.591 342.689C447.107 338.216 453.902 333.612 460.187 330.746Z" fill="#7C3AED"/>
<path d="M485.031 119.341C488.246 117.674 492.849 115.832 495.261 115.248C497.672 114.648 501.618 114.093 504.029 114.005C506.441 113.917 511.702 114.794 515.721 115.964C520.164 117.25 525.849 120.554 530.218 124.384C534.384 128.024 538.841 133.769 540.799 137.993C543.094 142.949 544.19 148.021 544.204 153.708C544.219 158.488 542.962 165.577 541.296 170.153C539.148 176.044 536.517 179.757 531.431 184.069C527.252 187.607 521.289 190.881 516.452 192.299C510.884 193.922 505.827 194.375 500.01 193.732C495.392 193.22 489.137 191.554 486.127 190.004C483.116 188.469 478.25 184.683 475.327 181.599C472.404 178.529 468.794 173.705 467.318 170.884C465.403 167.229 464.629 162.625 464.629 154.804C464.644 146.165 465.36 142.437 468.049 137.262C469.934 133.637 473.208 128.813 475.327 126.533C477.446 124.252 481.815 121.007 485.031 119.341Z" fill="#BA91FF"/>
</svg>
